# xmcd
#
# Track frame offsets: 
#        150
#        17809
#        34777
#        58536
#        76469
#        96121
#        112553
#        127259
#        148036
#        164432
#
# Disc length: 2435 seconds
#
# Revision: 0
# Processed by: cddbd v1.5.2PL0 Copyright (c) Steve Scherf et al.
# Submitted via: ExactAudioCopy v0.99pb3
#
DISCID=7f09810a
DTITLE=DEMIGOD - Let Chaos Prevail
DYEAR=2007
DGENRE=Death Metal
TTITLE0=Not dead enough
TTITLE1=Let chaos prevail
TTITLE2=Dark turns black
TTITLE3=Cult of sickness
TTITLE4=God said suffer
TTITLE5=To see the last one die
TTITLE6=Self-Caged
TTITLE7=End of evolution
TTITLE8=The uncrowned
TTITLE9=Baptized in enmity
EXTD=
EXTT0=
EXTT1=
EXTT2=
EXTT3=
EXTT4=
EXTT5=
EXTT6=
EXTT7=
EXTT8=
EXTT9=
PLAYORDER=
